<?xml version="1.0" encoding="UTF-8"?>
<svg width="1200pt" height="1200pt" version="1.1" viewBox="0 0 1200 1200" xmlns="http://www.w3.org/2000/svg">
 <path d="m579.98 289.22 42.328 144.98c8.3438-1.4531 16.781-2.1562 25.219-2.1562 39.797-0.046875 77.953 15.797 106.08 43.969 1.8281 1.8281 3.6562 3.75 5.3906 5.6719l134.72-99.422c-33.328-59.578-14.859-134.81 42.328-172.22 57.141-37.359 133.5-24.094 174.71 30.328 41.25 54.469 33.281 131.53-18.188 176.39-51.469 44.906-128.9 42.281-177.24-5.9531l-1.5-1.5-135.24 99.797c30.562 54.797 23.719 122.86-17.062 170.53l80.156 77.719h-0.046875c47.062-40.547 111.75-53.859 171-35.203s104.62 66.609 120 126.79c15.375 60.184-1.5 124.03-44.531 168.79-43.031 44.766-106.17 64.078-166.92 51.094s-110.44-56.438-131.39-114.94c-20.953-58.453-10.219-123.61 28.453-172.22l-81.469-78.984c-54.656 40.453-129.71 39.047-182.81-3.375l-143.06 140.39c42.938 52.406 55.641 123.28 33.609 187.31-22.078 64.031-75.703 112.08-141.79 126.89-66.094 14.859-135.14-5.625-182.44-54.094-47.297-48.469-66.141-117.98-49.688-183.71 16.406-65.672 65.719-118.17 130.26-138.66 64.547-20.531 135.14-6.0938 186.47 38.109l142.78-140.16c-24.797-31.172-36.188-70.969-31.594-110.53l-188.39-54.797c-27.562 62.25-98.625 92.391-162.52 69-63.891-23.438-98.672-92.391-79.5-157.64 19.172-65.297 85.734-104.53 152.11-89.672 66.422 14.859 109.88 78.703 99.422 145.92l186.56 54.234h-0.046875c14.438-39.797 44.812-71.766 83.812-88.266l-42.234-144.52c-67.312 11.344-131.86-31.453-147.61-97.875-15.703-66.375 22.781-133.64 88.031-153.66s134.86 14.016 159.1 77.812c24.238 63.797-5.2031 135.47-67.266 163.82z" fill="#c8ef60" fill-rule="evenodd"/>
</svg>
